<svg width="50" height="50" viewBox="0 0 50 50" fill="none" xmlns="http://www.w3.org/2000/svg">
<path fill-rule="evenodd" clip-rule="evenodd" d="M22.7735 8.07185C22.7735 14.3097 22.9824 16.1437 23.694 16.1437C24.2002 16.1437 25.5413 17.0252 26.6736 18.1023C28.4395 19.7823 28.734 20.561 28.7403 23.5831C28.7473 26.825 28.9436 27.2537 31.194 28.9542C32.5394 29.9705 34.1532 30.8092 34.7814 30.8188C38.0806 30.8686 38.2012 35.6002 34.9223 36.3502C33.5426 36.6657 32.8373 36.4651 32.1524 35.5612C31.6476 34.895 30.0401 33.2756 28.5812 31.9635C26.5593 30.1455 25.5946 29.6894 24.5262 30.0471C23.755 30.3052 21.7808 30.509 20.1396 30.4994C17.7216 30.486 16.7226 30.0887 14.8816 28.4112C12.934 26.6372 12.608 25.8892 12.608 23.1999C12.608 20.5968 12.96 19.7261 14.6671 18.1023C15.7993 17.0252 17.1404 16.1437 17.6466 16.1437C18.3554 16.1437 18.5671 14.3806 18.5671 8.47813C18.5671 1.51651 18.4507 0.812551 17.3024 0.812551C14.8949 0.812551 8.85594 4.08064 5.9437 6.95906C1.50104 11.3508 0.0119739 14.8533 5.57918e-05 20.9347C-0.0118624 26.8135 1.88522 31.3931 6.11687 35.7037C9.67408 39.3276 10.1543 40.4915 10.1543 45.4863V50H20.6703H31.1863V48.136C31.1863 45.0052 31.8285 44.383 36.872 42.627C42.5934 40.6352 43.8055 39.0906 43.8055 33.7956V30.3039L46.7851 29.3988C48.4669 28.8884 49.8635 28.0292 49.9917 27.4268C50.1165 26.8397 48.8112 24.8518 47.09 23.0082C44.7499 20.5016 43.7614 18.7717 43.1683 16.1437C41.2509 7.65216 34.4792 1.46221 25.9402 0.395416L22.7735 0V8.07185ZM17.8661 20.6153C17.0949 21.318 16.4639 22.4678 16.4639 23.1705C16.4639 23.8732 17.0949 25.023 17.8661 25.7257C18.6372 26.4284 19.8991 27.0033 20.6703 27.0033C22.4763 27.0033 24.8767 24.816 24.8767 23.1705C24.8767 22.4678 24.2458 21.318 23.4746 20.6153C22.7034 19.9126 21.4415 19.3377 20.6703 19.3377C19.8991 19.3377 18.6372 19.9126 17.8661 20.6153Z" fill="white"/>
</svg>
