<svg width="50" height="50" viewBox="0 0 50 50" fill="none" xmlns="http://www.w3.org/2000/svg">
<path fill-rule="evenodd" clip-rule="evenodd" d="M15.531 0.186624C-0.757374 2.39324 -0.0130667 1.75514 0.0111878 13.4832C0.0324104 23.4102 0.654688 26.684 3.59402 32.3242C6.25671 37.4338 15.6409 46.0436 21.0261 48.319L25.0054 50L28.9846 48.319C34.3699 46.0436 43.7541 37.4338 46.4168 32.3242C49.3493 26.6972 49.9784 23.4102 49.9996 13.6159C50.0125 7.41401 49.7252 4.52972 49.0052 3.62777C48.4041 2.87372 46.0196 1.97108 43.131 1.40311C38.2112 0.435197 19.7126 -0.379958 15.531 0.186624ZM27.2921 14.7407L28.5412 18.17L33.2155 18.377C38.938 18.6297 39.1889 19.5108 34.4305 22.6409C32.4 23.9768 31.1296 25.2988 31.3563 25.8397C32.4902 28.547 33.3512 32.5241 32.9366 33.1393C32.6584 33.5511 30.9174 32.8255 28.7337 31.3882L25.0054 28.9344L21.277 31.3882C19.0934 32.8255 17.3524 33.5511 17.0742 33.1393C16.6596 32.5241 17.5206 28.547 18.6545 25.8397C18.8811 25.2988 17.6108 23.9768 15.5803 22.6409C10.8241 19.5122 11.0735 18.6297 16.7839 18.377L21.4483 18.17L22.4776 15.3927C23.0438 13.8651 23.6744 12.1987 23.8776 11.6898C24.5643 9.97474 26.0339 11.2891 27.2921 14.7407Z" fill="white"/>
</svg>
