<svg width="50" height="50" viewBox="0 0 50 50" fill="none" xmlns="http://www.w3.org/2000/svg">
<path fill-rule="evenodd" clip-rule="evenodd" d="M16.8745 0.983436C6.20523 4.07244 -0.895884 12.819 0.0914449 21.6544C0.866766 28.5951 5.38399 34.2918 14.123 39.3519C18.9908 42.1702 21.5333 44.7363 22.4671 47.7744C22.9837 49.4543 24.692 50.4442 25.9694 49.8033C26.3521 49.612 27.5545 47.9278 28.6429 46.0616C30.2218 43.3539 31.7396 41.9975 36.1535 39.3488C46.1806 33.3317 49.9814 28.0281 49.9998 20.028C50.0097 15.8447 49.676 14.5064 47.8912 11.5559C45.3945 7.43098 40.2306 3.35391 35.2212 1.55168C30.1506 -0.272288 22.0752 -0.522563 16.8745 0.983436ZM29.7879 16.5645C31.3148 17.8034 32.025 19.002 32.025 20.3385C32.025 23.0101 28.4293 25.9278 25.1367 25.9278C21.8441 25.9278 18.2484 23.0101 18.2484 20.3385C18.2484 19.002 18.9586 17.8034 20.4855 16.5645C22.0124 15.3255 23.4896 14.7492 25.1367 14.7492C26.7838 14.7492 28.2609 15.3255 29.7879 16.5645Z" fill="white"/>
</svg>
