<svg width="50" height="50" viewBox="0 0 50 50" fill="none" xmlns="http://www.w3.org/2000/svg">
<path fill-rule="evenodd" clip-rule="evenodd" d="M18.3076 0.878015C10.7423 3.2572 5.22503 7.99811 1.96917 14.917C0.292998 18.4774 -0.00279728 20.0016 1.98202e-05 25.0457C0.00283692 30.0793 0.305675 31.6328 1.98889 35.2512C11.1529 54.9524 38.7351 54.9056 48.0266 35.1743C49.7021 31.616 50 30.0869 50 25.0457C50 20.0044 49.7021 18.4753 48.0266 14.917C45.8941 10.3878 42.3354 6.28881 38.3112 3.72521C32.8023 0.21581 24.2728 -0.99823 18.3076 0.878015ZM34.0179 13.6946L34.2348 16.6633H31.5177C28.1921 16.6633 27.1111 17.6399 27.1111 20.645C27.1111 22.911 27.1646 22.9501 30.2803 22.9501C33.3122 22.9501 33.4495 23.0381 33.4495 24.9884C33.4495 28.5006 32.8263 29.2368 29.8528 29.2368H27.1111V37.659V46.0818L24.1179 45.8667L21.1247 45.6522L20.9261 37.4445L20.7282 29.2368H17.5808H14.4341V26.0935V22.9501H17.6034H20.7726L20.774 19.9813C20.7747 16.3211 22.6551 12.4366 24.9983 11.2525C25.9666 10.7636 28.3436 10.445 30.2803 10.5449L33.8017 10.7259L34.0179 13.6946Z" fill="#112362"/>
</svg>
