<svg width="50" height="50" viewBox="0 0 50 50" fill="none" xmlns="http://www.w3.org/2000/svg">
<path fill-rule="evenodd" clip-rule="evenodd" d="M18.9909 0.420672C11.8955 2.21058 5.28182 7.75663 2.0013 14.6667C0.202597 18.4559 0 19.5061 0 25.0411C0 30.5762 0.202597 31.6264 2.0013 35.4156C4.56493 40.8158 9.19935 45.4426 14.6084 48.002C18.4058 49.7984 19.4539 50 25.0136 50C30.6948 50 31.5487 49.8269 35.5448 47.8626C41.0688 45.1476 45.1396 41.0835 47.8591 35.5686C49.8266 31.5791 50 30.7266 50 25.0547C50 19.5042 49.7981 18.4578 47.9987 14.6667C43.8643 5.95635 35.8104 0.488742 26.4604 0.0446688C23.6929 -0.0869325 20.3318 0.0822691 18.9909 0.420672ZM36.3208 8.82436C37.7727 9.53228 39.6916 11.1867 40.5844 12.5014C42.0734 14.6933 42.226 15.5898 42.424 23.307C42.689 33.6549 42.3695 35.4636 39.7507 38.4411C36.624 41.997 34.6539 42.5448 25 42.5448C15.676 42.5448 13.4916 41.9918 10.5935 38.8969C7.91364 36.036 7.46753 34.0581 7.46753 25.0411C7.46753 16.0235 7.91364 14.0463 10.5935 11.186C13.5058 8.07753 15.4364 7.59067 24.9571 7.5628C32.3734 7.5414 34.0766 7.7307 36.3208 8.82436ZM15.1058 12.4418C12.0338 14.1059 11.3636 16.3613 11.3636 25.0411C11.3636 37.5199 12.5006 38.6551 25 38.6551C37.4994 38.6551 38.6364 37.5199 38.6364 25.0411C38.6364 12.5228 37.511 11.4123 24.8701 11.4531C19.0773 11.4719 16.3948 11.7436 15.1058 12.4418ZM35.1 15.3733C35.7688 16.4546 34.2643 17.6942 33.3682 16.7995C32.6188 16.0514 33.0877 14.6686 34.0909 14.6686C34.4058 14.6686 34.8597 14.9856 35.1 15.3733ZM29.5623 16.6219C32.4591 18.0974 34.7403 21.8282 34.7403 25.0891C34.7403 29.8579 29.8 34.7654 25 34.7654C20.0591 34.7654 15.2597 29.9739 15.2597 25.0411C15.2597 21.9235 17.5578 18.0987 20.2994 16.6537C23.4325 15.0025 26.363 14.9928 29.5623 16.6219ZM21.0539 21.1015C19.7584 22.3948 19.1558 23.646 19.1558 25.0411C19.1558 27.83 22.2065 30.8757 25 30.8757C27.7935 30.8757 30.8442 27.83 30.8442 25.0411C30.8442 22.2522 27.7935 19.2066 25 19.2066C23.6026 19.2066 22.3494 19.8082 21.0539 21.1015Z" fill="#112362"/>
</svg>
