<svg width="50" height="50" viewBox="0 0 50 50" fill="none" xmlns="http://www.w3.org/2000/svg">
<path fill-rule="evenodd" clip-rule="evenodd" d="M18.3076 0.878015C10.7423 3.2572 5.22503 7.99811 1.96917 14.917C0.292998 18.4774 -0.00279728 20.0016 1.98202e-05 25.0457C0.00283692 30.0793 0.305675 31.6328 1.98889 35.2512C11.1529 54.9524 38.7351 54.9056 48.0266 35.1743C49.7021 31.616 50 30.0869 50 25.0457C50 20.0044 49.7021 18.4753 48.0266 14.917C45.8941 10.3878 42.3354 6.28881 38.3112 3.72521C32.8023 0.21581 24.2728 -0.99823 18.3076 0.878015ZM24.7201 10.042C25.6793 11.4935 25.7617 12.4121 25.1898 15.281L24.4968 18.7589H30.2951C38.0499 18.7589 38.2168 18.9818 36.6096 27.1881C35.9279 30.6702 34.9151 33.9701 34.3595 34.5212C32.9171 35.9518 20.1796 35.9336 18.2661 34.4982C17.5146 33.9337 16.3441 33.4622 15.6666 33.4504C14.5806 33.4308 14.4341 32.6373 14.4341 26.7745C14.4341 20.2866 14.4785 20.1043 16.2286 19.4449C18.1992 18.7016 20.0211 15.1406 20.6001 10.9005C21.0325 7.73756 22.9361 7.34079 24.7201 10.042Z" fill="white"/>
</svg>
