<svg width="50" height="50" viewBox="0 0 50 50" fill="none" xmlns="http://www.w3.org/2000/svg">
<path fill-rule="evenodd" clip-rule="evenodd" d="M21.9983 0.184895C15.64 0.972347 9.92395 4.06418 5.86421 8.91188C-3.77971 20.4275 -1.23166 37.7064 11.3234 45.9322C18.6161 50.71 27.9488 51.3228 35.7905 47.5386C41.0163 45.0168 45.0109 41.0224 47.5329 35.797C52.4773 25.5525 49.8195 13.2164 41.0865 5.87633C35.7791 1.41558 28.819 -0.659752 21.9983 0.184895ZM26.1368 4.50455C26.3241 4.64434 26.5982 4.92068 26.746 5.11859C27.0116 5.47427 27.015 5.60078 27.0494 16.2853L27.0842 27.0922L18.3617 27.057C9.78323 27.0222 9.63326 27.0173 9.27951 26.7531C8.59572 26.2426 8.38243 25.8262 8.38243 25.0023C8.38243 24.1783 8.59572 23.7621 9.27938 23.2515C9.63013 22.9896 9.80499 22.9819 16.2747 22.9467L22.9103 22.9108V14.389C22.9103 8.66903 22.9561 5.74657 23.0494 5.50033C23.2328 5.01618 23.6655 4.55653 24.1481 4.33309C24.6674 4.09271 25.705 4.18222 26.1368 4.50455Z" fill="white"/>
</svg>
