<svg width="93" height="36" viewBox="0 0 93 36" fill="none" xmlns="http://www.w3.org/2000/svg">
<path fill-rule="evenodd" clip-rule="evenodd" d="M21.4731 0.0570741C19.7687 0.212868 18.2552 0.815954 17.3147 1.714C16.2976 2.68516 15.8089 4.07622 15.9082 5.7169C15.9799 6.89945 16.265 7.70254 16.8846 8.46677C17.7397 9.52137 18.7555 10.1053 20.3265 10.4449C21.1168 10.6158 23.3876 10.6862 24.3124 10.5685C26.3954 10.3034 27.8909 9.43988 28.7344 8.01539C29.1172 7.36885 29.2796 6.83749 29.3588 5.97313C29.6065 3.26853 28.5015 1.44763 26.0684 0.550839C24.7591 0.0682829 23.192 -0.100105 21.4731 0.0570741ZM65.8021 0.05021C63.7286 0.223447 62.0073 1.02754 61.1089 2.24265C60.4373 3.15109 60.1756 4.01923 60.1756 5.33906C60.1756 7.13573 60.7049 8.28264 62.0093 9.31224C62.7035 9.86022 63.5326 10.2233 64.6049 10.4489C65.5836 10.6549 67.8252 10.687 68.9146 10.5107C71.0846 10.1596 72.6824 9.01614 73.3281 7.3521C73.7148 6.35531 73.7591 4.64511 73.4258 3.57584C73.1491 2.68799 72.7034 2.05733 71.9109 1.43201C71.3666 1.0026 71.0921 0.841079 70.5507 0.631885C69.1679 0.0976282 67.5729 -0.0977748 65.8021 0.05021ZM80.8033 0.0482583C79.4509 0.161357 78.4213 0.480123 77.6786 1.0157C76.9541 1.53818 76.5354 2.27723 76.5373 3.03044C76.5405 4.33333 77.485 5.20462 79.568 5.82584C79.8539 5.9111 80.6859 6.1038 81.4169 6.25405C83.4551 6.67307 83.9186 6.9186 83.9186 7.57949C83.9186 7.82968 83.8718 7.94763 83.7036 8.12162C83.3587 8.47842 83.0027 8.58214 82.1229 8.58214C81.4352 8.58214 81.3292 8.56564 80.9823 8.40474C80.4889 8.17597 80.1806 7.83466 80.0051 7.32301L79.8646 6.91337L79.5373 6.91287C79.3572 6.91262 78.4964 6.94618 77.6244 6.98755L76.0389 7.06274L76.0906 7.40921C76.2088 8.20279 76.82 9.15821 77.5485 9.68806C77.7465 9.83207 78.1654 10.0425 78.4794 10.1557C79.4704 10.5131 79.9258 10.5777 81.684 10.6105C83.0708 10.6364 83.3824 10.6236 84.0602 10.5132C85.6171 10.2598 86.806 9.59171 87.411 8.63019C87.7829 8.039 87.8985 7.5827 87.8492 6.89983C87.8162 6.44209 87.7634 6.2742 87.531 5.88812C86.8957 4.83245 85.6696 4.26652 82.8663 3.73522C81.0938 3.39927 80.7729 3.31646 80.5192 3.12949C80.3441 3.00046 80.2873 2.90153 80.2873 2.7259C80.2873 2.20235 80.911 1.89826 81.8735 1.9526C82.8 2.00493 83.3682 2.3521 83.5718 2.99032C83.6193 3.13919 83.6989 3.26022 83.7485 3.25921C84.2837 3.24889 87.4153 3.07326 87.4422 3.05204C87.5156 2.99417 87.2188 2.15745 86.9917 1.78195C86.5065 0.979808 85.3912 0.367591 84.0121 0.146432C83.2492 0.0240768 81.6703 -0.0242228 80.8033 0.0482583ZM2.01349 1.45052L2.03512 2.72571L4.09018 2.74253L6.14525 2.75934V6.63107V10.5028H8.14046H10.1357V6.63V2.7572H12.2107H14.2857V1.46627V0.175336H8.13879H1.99194L2.01349 1.45052ZM32.482 5.33906V10.5028H37.6297H42.7773V9.21186V7.92093H39.6648H36.5523V4.04813V0.175336H34.5172H32.482V5.33906ZM45.5901 5.31891L45.6105 10.4713L49.1221 10.4683C52.4558 10.4654 52.6721 10.4581 53.3919 10.326C54.5539 10.1126 55.2158 9.83535 55.9409 9.25808C57.0695 8.35953 57.5099 7.42332 57.5919 5.74838C57.7363 2.79599 56.3891 0.948699 53.6552 0.350462C53.0666 0.221621 52.8301 0.212867 49.3012 0.190323L45.5697 0.166457L45.5901 5.31891ZM23.613 2.5594C24.4029 2.79618 24.9106 3.25443 25.1928 3.98516C25.3077 4.28264 25.3377 4.56394 25.3338 5.30758C25.3271 6.5958 25.1172 7.21961 24.5302 7.69662C23.9768 8.14618 23.094 8.34618 22.1771 8.22968C20.9675 8.07597 20.2858 7.48176 20.0169 6.34662C19.9718 6.15613 19.9523 5.60355 19.9735 5.11866C20.0262 3.91425 20.1919 3.50248 20.8251 3.00292C21.1567 2.74127 21.3927 2.61444 21.6755 2.54593C22.2364 2.4101 23.1358 2.41633 23.613 2.5594ZM67.8149 2.53743C68.3434 2.66123 68.9638 3.09952 69.2223 3.53163C69.5344 4.05336 69.6174 4.53636 69.5733 5.57345C69.5209 6.80304 69.3575 7.23333 68.7654 7.70052C68.2579 8.1009 67.7576 8.24977 66.9194 8.24977C65.5192 8.24977 64.6811 7.69769 64.3172 6.53554C64.1777 6.08963 64.1781 4.67162 64.318 4.17408C64.5421 3.37723 65.0904 2.80997 65.863 2.57565C66.3754 2.42024 67.2425 2.4033 67.8149 2.53743ZM51.9553 2.66564C52.616 2.82452 53.0819 3.22017 53.3237 3.82792C53.4911 4.24845 53.5116 4.42042 53.5115 5.40204C53.5114 6.61923 53.408 7.04668 53.0071 7.48673C52.5528 7.98541 52.0894 8.106 50.6185 8.10833L49.6409 8.10985V5.29832V2.4868L50.5786 2.52345C51.0943 2.5436 51.7139 2.60758 51.9553 2.66564ZM0 24.766V35.4398H0.464804C0.720431 35.4398 1.26808 35.3943 1.68188 35.3386C4.6842 34.9345 7.18827 33.5793 8.74876 31.5139L9.14876 30.9845L9.37622 31.3072C9.80902 31.9214 10.2512 32.3878 10.9302 32.9464C12.5111 34.2468 14.4399 35.0529 16.6776 35.3481C17.9099 35.5107 19.5155 35.4511 20.7773 35.1959C24.0255 34.539 26.6875 32.6171 27.8055 30.1216C27.8488 30.0251 27.9175 30.1017 28.1242 30.4768C28.7682 31.6458 29.3958 32.3667 30.5027 33.2093C32.0115 34.3578 33.8173 35.0718 35.9114 35.3481C37.1437 35.5107 38.7493 35.4511 40.0111 35.1959C41.106 34.9745 42.4344 34.4924 43.3235 33.9937C44.4725 33.3494 45.6733 32.3183 46.2521 31.4792L46.4714 31.1613L46.8144 31.6003C48.2765 33.4714 50.465 34.7175 53.2322 35.2544C53.875 35.379 54.203 35.402 55.3871 35.4049C56.9055 35.4086 57.4484 35.3494 58.6055 35.0537C60.1611 34.6561 61.6077 33.9325 62.7909 32.9599C63.4277 32.4365 64.261 31.5219 64.4784 31.1076C64.5367 30.9966 64.6085 30.9058 64.6379 30.9058C64.6674 30.9058 64.7921 31.0687 64.9151 31.2679C65.5828 32.3488 66.9631 33.5894 68.2451 34.2611C70.0057 35.1835 71.8602 35.629 73.9366 35.6285C75.6719 35.628 77.0974 35.3586 78.6025 34.7466C80.5698 33.9467 82.0627 32.7283 83.0583 31.11L83.4943 30.4012L83.8126 30.9211C85.0465 32.937 87.2127 34.4089 89.9494 35.091C90.6345 35.2618 91.8603 35.4391 92.3583 35.4396L92.6576 35.4398V24.766V14.0922H46.3288H0V24.766ZM7.18276 23.8844V28.4499H5.38707H3.59138V23.8844V19.3189H5.38707H7.18276V23.8844ZM20.5906 20.4524V21.5859H18.7949H16.9992V25.0179V28.4499H15.2035H13.4078V25.0179V21.5859H11.5722H9.73663V20.4524V19.3189H15.1636H20.5906V20.4524ZM31.2105 23.8529C32.3919 26.3293 33.3588 28.3772 33.3592 28.4038C33.3596 28.4304 32.5267 28.4446 31.5084 28.4353L29.6567 28.4184L29.3803 27.6785L29.1038 26.9386H27.0548H25.0059L24.7332 27.6785L24.4605 28.4184L22.6355 28.4353C20.9226 28.4513 20.813 28.4455 20.8502 28.3409C20.872 28.2796 21.8288 26.26 22.9765 23.8529C24.1243 21.4458 25.0796 19.4404 25.0995 19.3965C25.1277 19.3344 25.5707 19.3204 27.099 19.3335L29.0624 19.3504L31.2105 23.8529ZM42.556 19.4108C43.3057 19.5362 43.7468 19.7045 44.1972 20.0369C44.8627 20.528 45.1662 21.163 45.1697 22.0709C45.1732 23.0085 44.9055 23.6115 44.2342 24.1777C43.4741 24.819 42.433 25.0494 40.2962 25.0494H38.9465V26.7496V28.4499H37.1508H35.3551V23.8844V19.3189L38.6871 19.32C41.263 19.3209 42.141 19.3415 42.556 19.4108ZM57.4621 20.295V21.2711H54.4693H51.4765V21.9952V22.7194H54.2698H57.063V23.6325V24.5456H54.2698H51.4765V25.4587V26.3718H54.5491H57.6217V27.4108V28.4499H52.7534H47.8851V23.8844V19.3189H52.6736H57.4621V20.295ZM65.8783 21.7591C66.315 23.1012 66.7279 24.3484 66.7959 24.5307L66.9194 24.8623L67.7513 22.2952C68.2089 20.8834 68.6147 19.6362 68.6529 19.5236L68.7226 19.3189H71.0732H73.4238V23.8844V28.4499H71.948H70.4722L70.4516 25.044L70.431 21.6382L69.8003 23.5799C69.4535 24.6479 68.9542 26.1812 68.6909 26.9872L68.2121 28.4529L66.8899 28.4356L65.5679 28.4184L64.4832 25.0809C63.8865 23.2452 63.3764 21.7008 63.3496 21.6489C63.3227 21.5969 63.2978 23.1059 63.2944 25.0022L63.2881 28.4499H61.8516H60.415V23.8844V19.3189H62.7496H65.0843L65.8783 21.7591ZM85.7363 23.7742C86.9028 26.2246 87.8816 28.2791 87.9116 28.3397C87.9625 28.4427 87.8446 28.4499 86.0988 28.4499H84.2316L83.9544 27.71L83.6772 26.97L81.6298 26.9532L79.5823 26.9365L79.5004 27.1421C79.4554 27.2553 79.3245 27.5959 79.2096 27.8989L79.0007 28.4499H77.1791H75.3575L77.5013 23.9438C78.6803 21.4654 79.6659 19.411 79.6915 19.3784C79.7186 19.3437 80.5478 19.3189 81.6768 19.3189H83.6155L85.7363 23.7742ZM38.9465 22.1762V23.2232H39.5811C40.7665 23.2232 41.382 23.0214 41.631 22.5512C41.7828 22.2646 41.7671 22.048 41.5718 21.7296C41.3156 21.312 40.9557 21.1929 39.8444 21.1577L38.9465 21.1292V22.1762ZM27.0384 21.7496C27.0159 21.7808 26.7364 22.4864 26.4174 23.3176C26.0983 24.1489 25.8202 24.8644 25.7992 24.9077C25.7697 24.9687 26.051 24.9864 27.0465 24.9864C27.7536 24.9864 28.3309 24.9652 28.3296 24.9392C28.322 24.7899 27.0722 21.7027 27.0384 21.7496ZM81.0123 23.2406C80.6889 24.0796 80.4073 24.8156 80.3864 24.8762C80.3515 24.9779 80.4489 24.9864 81.6433 24.9864C82.7202 24.9864 82.9309 24.9716 82.8952 24.8983C82.8716 24.8498 82.5946 24.1484 82.2798 23.3397C81.9649 22.531 81.6832 21.8347 81.6537 21.7923C81.6243 21.7499 81.3357 22.4017 81.0123 23.2406Z" fill="white"/>
</svg>
